# xmcd
#
# Track frame offsets: 
#        150
#        19957
#        55602
#        82509
#        101981
#        136899
#        150060
#        167478
#        194950
#        226931
#        249031
#        264398
#        284558
#
# Disc length: 4096 seconds
#
# Revision: 1
# Processed by: cddbd v1.5.2PL0 Copyright (c) Steve Scherf et al.
# Submitted via: ExactAudioCopyFreeDBPlugin 1.0
#
DISCID=9d0ffe0d
DTITLE=Shri - See Shri Plays The Blues CD1
DYEAR=1999
DGENRE=Blues
TTITLE0=Turn Around
TTITLE1=Medley 2 Hands-I Learned My Lesson
TTITLE2=Loser Blues
TTITLE3=Wasn't Working
TTITLE4=Silken Cross Blues
TTITLE5=A Woman With My Class
TTITLE6=I'm A Man
TTITLE7=Smokestack lightning
TTITLE8=Voodoo Chile
TTITLE9=Sweet Little Angel
TTITLE10=Course Of Action
TTITLE11=Dreamin' Blout Dreamin
TTITLE12=The Great Equalizer
EXTD=YEAR: 1999
EXTT0=
EXTT1=
EXTT2=
EXTT3=
EXTT4=
EXTT5=
EXTT6=
EXTT7=
EXTT8=
EXTT9=
EXTT10=
EXTT11=
EXTT12=
PLAYORDER=
